<?xml version="1.0" encoding="UTF-8" standalone="no"?>
<!-- Created with Inkscape (http://www.inkscape.org/) -->

<svg
   xmlns:dc="http://purl.org/dc/elements/1.1/"
   xmlns:cc="http://creativecommons.org/ns#"
   xmlns:rdf="http://www.w3.org/1999/02/22-rdf-syntax-ns#"
   xmlns:svg="http://www.w3.org/2000/svg"
   xmlns="http://www.w3.org/2000/svg"
   xmlns:sodipodi="http://sodipodi.sourceforge.net/DTD/sodipodi-0.dtd"
   xmlns:inkscape="http://www.inkscape.org/namespaces/inkscape"
   id="svg2"
   version="1.1"
   inkscape:version="0.48.4 r9939"
   width="65"
   height="65"
   xml:space="preserve"
   sodipodi:docname="vk-symbolic.svg"><metadata
     id="metadata8"><rdf:RDF><cc:Work
         rdf:about=""><dc:format>image/svg+xml</dc:format><dc:type
           rdf:resource="http://purl.org/dc/dcmitype/StillImage" /></cc:Work></rdf:RDF></metadata><defs
     id="defs6" /><sodipodi:namedview
     pagecolor="#ffffff"
     bordercolor="#666666"
     borderopacity="1"
     objecttolerance="10"
     gridtolerance="10"
     guidetolerance="10"
     inkscape:pageopacity="0"
     inkscape:pageshadow="2"
     inkscape:window-width="1920"
     inkscape:window-height="1012"
     id="namedview4"
     showgrid="false"
     inkscape:zoom="8.5441126"
     inkscape:cx="12.25327"
     inkscape:cy="32.909027"
     inkscape:window-x="0"
     inkscape:window-y="33"
     inkscape:window-maximized="1"
     inkscape:current-layer="g10" /><g
     id="g10"
     inkscape:groupmode="layer"
     inkscape:label="ink_ext_XXXXXX"
     transform="matrix(1.25,0,0,-1.25,0,65)"><path
       inkscape:connector-curvature="0"
       id="path18"
       style="fill:#ffffff;fill-opacity:1;fill-rule:evenodd;stroke:none"
       d="m 272.474,280.199 c -4.41,-2.046 -8.684,-3.175 -12.825,-3.388 -4.139,-0.216 -11.371,-0.322 -21.694,-0.322 l -7.582,0 0,50.81 4.195,0 c 10.752,0 18.845,-0.081 24.277,-0.242 5.427,-0.161 10.134,-1.104 14.113,-2.822 4.193,-1.832 7.284,-4.788 9.275,-8.873 1.989,-4.088 2.985,-8.065 2.985,-11.936 0,-5.271 -0.915,-9.896 -2.742,-13.873 -1.83,-3.979 -5.163,-7.096 -10.002,-9.354 l 0,0 z m 12.098,-100.332 c -6.239,-2.689 -12.368,-4.141 -18.388,-4.355 -6.025,-0.216 -16.885,-0.323 -32.583,-0.323 l -3.228,0 0,60.167 11.131,0 c 10.752,0 19.329,-0.082 25.727,-0.243 6.398,-0.16 11.426,-0.942 15.083,-2.339 6.021,-2.151 10.537,-5.321 13.549,-9.516 3.01,-4.194 4.518,-10 4.518,-17.421 0,-5.807 -1.266,-10.996 -3.792,-15.566 -2.528,-4.572 -6.532,-8.04 -12.017,-10.404 l 0,0 z m 64.521,63.796 c -8.926,9.623 -20.807,15.994 -35.648,19.113 l 0,1.292 c 10.324,4.299 18.414,11.021 24.277,20.163 5.859,9.138 8.792,19.57 8.792,31.292 0,10.108 -2.125,19.034 -6.372,26.776 -4.25,7.743 -10.674,13.927 -19.277,18.552 -7.96,4.298 -16.48,7.123 -25.566,8.467 -9.089,1.343 -22.448,2.017 -40.085,2.017 l -84.845,0 0,-240.182 96.137,0 c 16.668,0 30.405,1.504 41.214,4.518 10.806,3.009 20.727,8.063 29.759,15.16 7.634,5.913 13.712,13.391 18.227,22.423 4.518,9.032 6.775,19.517 6.775,31.454 0,16.345 -4.462,29.33 -13.388,38.955 l 0,0 z m 28.201,-201.1821 -251.991,0 c -45.1366,0 -81.7253,36.589 -81.7253,81.7251 l 0,251.991 c 0,45.137 36.5887,81.725 81.7253,81.725 l 251.991,0 c 45.136,0 81.725,-36.588 81.725,-81.725 l 0,-251.991 c 0,-45.1361 -36.589,-81.7251 -81.725,-81.7251 l 0,0" /><path
       style="fill:#000000;fill-opacity:1;fill-rule:evenodd;stroke:none"
       d="M 12.78125 0 C 5.7191712 0 0 5.71911 0 12.78125 L 0 52.21875 C 2.3684758e-15 59.28075 5.7191713 65 12.78125 65 L 52.21875 65 C 59.280734 65 65 59.28075 65 52.21875 L 65 12.78125 C 65 5.71911 59.280734 0 52.21875 0 L 12.78125 0 z M 17.34375 7.5 L 47.65625 7.5 C 53.088546 7.5 57.5 11.911333 57.5 17.34375 L 57.5 47.65625 C 57.5 53.088559 53.088546 57.5 47.65625 57.5 L 17.34375 57.5 C 11.911382 57.5 7.5 53.088559 7.5 47.65625 L 7.5 17.34375 C 7.5 11.911333 11.911382 7.5 17.34375 7.5 z M 19.84375 13.5625 L 19.84375 51.125 L 34.875 51.125 C 37.482878 51.125 39.621323 50.877821 41.3125 50.40625 C 43.003209 49.935461 44.555601 49.172897 45.96875 48.0625 C 47.163166 47.137351 48.137333 45.944398 48.84375 44.53125 C 49.550636 43.118102 49.90625 41.492665 49.90625 39.625 C 49.90625 37.06766 49.209062 35.037179 47.8125 33.53125 C 46.415936 32.025634 44.540775 31.019249 42.21875 30.53125 L 42.21875 30.34375 C 43.834045 29.671127 45.113925 28.617859 46.03125 27.1875 C 46.94795 25.757768 47.40625 24.115275 47.40625 22.28125 C 47.40625 20.699751 47.070736 19.305064 46.40625 18.09375 C 45.741295 16.882279 44.721026 15.911129 43.375 15.1875 C 42.129577 14.515035 40.796596 14.085282 39.375 13.875 C 37.952934 13.664874 35.884488 13.5625 33.125 13.5625 L 19.84375 13.5625 z M 29.21875 20.4375 L 29.875 20.4375 C 31.557259 20.4375 32.837609 20.443562 33.6875 20.46875 C 34.536609 20.493938 35.252445 20.637453 35.875 20.90625 C 36.531037 21.192885 37.032239 21.67336 37.34375 22.3125 C 37.65495 22.952109 37.8125 23.581844 37.8125 24.1875 C 37.8125 25.012203 37.660853 25.721508 37.375 26.34375 C 37.088679 26.966304 36.56961 27.459213 35.8125 27.8125 C 35.122511 28.132618 34.460401 28.310424 33.8125 28.34375 C 33.164911 28.37755 32.021389 28.375 30.40625 28.375 L 29.21875 28.375 L 29.21875 20.4375 z M 29.21875 34.8125 L 30.96875 34.8125 C 32.651009 34.8125 33.998968 34.8498 35 34.875 C 36.001031 34.900037 36.771575 35.000176 37.34375 35.21875 C 38.285796 35.555296 38.997491 36.0624 39.46875 36.71875 C 39.939695 37.374944 40.1875 38.276409 40.1875 39.4375 C 40.1875 40.346064 39.988968 41.159978 39.59375 41.875 C 39.198219 42.590331 38.576934 43.130129 37.71875 43.5 C 36.742595 43.920721 35.78564 44.154018 34.84375 44.1875 C 33.901077 44.2213 32.174861 44.25 29.71875 44.25 L 29.21875 44.25 L 29.21875 34.8125 z "
       transform="matrix(0.8,0,0,-0.8,0,52)"
       id="path3798" /></g></svg>